<svg width="315" height="33" viewBox="0 0 315 33" fill="none" xmlns="http://www.w3.org/2000/svg">
<g clip-path="url(#clip0_4001_387)">
<path d="M308.5 25.228C307.37 25.228 306.348 24.9648 305.435 24.4384C304.537 23.9121 303.833 23.1845 303.322 22.2557C302.811 21.3114 302.556 20.2589 302.556 19.0978C302.556 17.9832 302.796 16.9615 303.275 16.0326C303.771 15.0884 304.46 14.3454 305.342 13.8036C306.224 13.2463 307.231 12.9677 308.361 12.9677C309.522 12.9677 310.528 13.2231 311.379 13.7339C312.246 14.2448 312.904 14.9569 313.353 15.8702C313.802 16.7681 314.027 17.8051 314.027 18.9817C314.027 19.121 314.019 19.2604 314.003 19.3997C313.988 19.5389 313.98 19.6164 313.98 19.6318H305.11C305.187 20.6845 305.567 21.4973 306.248 22.0699C306.929 22.6428 307.703 22.9291 308.57 22.9291C309.901 22.9291 310.923 22.3099 311.635 21.0715L313.818 22.1165C313.307 23.0608 312.595 23.8192 311.681 24.392C310.783 24.9493 309.723 25.228 308.5 25.228ZM311.426 17.6814C311.395 17.3098 311.271 16.9305 311.054 16.5436C310.838 16.1565 310.497 15.8314 310.033 15.5683C309.584 15.2897 309.019 15.1503 308.338 15.1503C307.579 15.1503 306.921 15.3826 306.364 15.8469C305.822 16.3113 305.451 16.9229 305.249 17.6814H311.426Z" fill="white"/>
<path d="M296.95 25.228C295.634 25.228 294.543 24.9261 293.676 24.3223C292.824 23.7031 292.221 22.9291 291.865 22.0003L294.14 21.0251C294.403 21.6597 294.783 22.1396 295.278 22.4647C295.789 22.7897 296.346 22.9524 296.95 22.9524C297.585 22.9524 298.103 22.8363 298.506 22.604C298.908 22.3564 299.109 22.039 299.109 21.6521C299.109 21.2805 298.947 20.9787 298.622 20.7464C298.297 20.4988 297.763 20.282 297.02 20.0962L295.441 19.7248C294.574 19.5234 293.823 19.152 293.188 18.6102C292.569 18.0529 292.259 17.3331 292.259 16.4507C292.259 15.3826 292.701 14.5389 293.583 13.9197C294.465 13.285 295.549 12.9677 296.834 12.9677C297.902 12.9677 298.846 13.1921 299.667 13.641C300.503 14.09 301.106 14.7401 301.478 15.5915L299.225 16.5436C299.009 16.0637 298.676 15.7076 298.227 15.4754C297.778 15.2432 297.29 15.1271 296.764 15.1271C296.253 15.1271 295.804 15.2432 295.417 15.4754C295.03 15.6921 294.837 15.9863 294.837 16.3579C294.837 16.6829 294.968 16.946 295.232 17.1473C295.51 17.3485 295.944 17.5188 296.532 17.6581L298.25 18.0762C299.411 18.3701 300.278 18.8191 300.851 19.4228C301.424 20.0111 301.71 20.7233 301.71 21.5591C301.71 22.2402 301.501 22.8594 301.083 23.4168C300.681 23.974 300.116 24.4152 299.388 24.7403C298.676 25.0654 297.863 25.228 296.95 25.228Z" fill="white"/>
<path d="M284.73 25.228C283.91 25.228 283.167 25.0654 282.501 24.7403C281.851 24.3998 281.332 23.9354 280.945 23.3471C280.574 22.7434 280.388 22.0623 280.388 21.3037C280.388 20.0962 280.837 19.1442 281.735 18.4476C282.648 17.7509 283.801 17.4027 285.195 17.4027C286.418 17.4027 287.463 17.6118 288.329 18.0296V17.5421C288.329 16.8454 288.051 16.2727 287.493 15.8238C286.952 15.3593 286.294 15.1271 285.52 15.1271C284.343 15.1271 283.399 15.607 282.687 16.5667L280.737 15.22C281.278 14.4924 281.952 13.9352 282.757 13.5482C283.577 13.1611 284.498 12.9677 285.52 12.9677C287.207 12.9677 288.507 13.3933 289.421 14.2448C290.35 15.0807 290.814 16.2649 290.814 17.7975V24.8564H288.329V23.44H288.19C287.819 23.9663 287.346 24.3998 286.774 24.7403C286.201 25.0654 285.52 25.228 284.73 25.228ZM285.148 23.1148C285.721 23.1148 286.247 22.9756 286.727 22.697C287.223 22.4028 287.61 22.0235 287.888 21.5591C288.182 21.0793 288.329 20.5685 288.329 20.0266C287.509 19.5776 286.634 19.3532 285.706 19.3532C284.854 19.3532 284.189 19.5389 283.709 19.9105C283.229 20.282 282.989 20.7542 282.989 21.3269C282.989 21.8533 283.198 22.2868 283.616 22.6273C284.049 22.9524 284.56 23.1148 285.148 23.1148Z" fill="white"/>
<path d="M274.014 25.2278C273.178 25.2278 272.427 25.0499 271.761 24.6938C271.111 24.3378 270.624 23.8888 270.298 23.3471H270.159V24.8564H267.744V8.23068H270.298V13.223L270.159 14.8252H270.298C270.624 14.2989 271.111 13.8577 271.761 13.5017C272.427 13.1456 273.178 12.9676 274.014 12.9676C275.004 12.9676 275.918 13.2308 276.754 13.7571C277.605 14.2834 278.279 15.0187 278.774 15.963C279.285 16.8918 279.54 17.9367 279.54 19.0978C279.54 20.2587 279.285 21.3037 278.774 22.2324C278.279 23.1612 277.605 23.8966 276.754 24.4384C275.918 24.9648 275.004 25.2278 274.014 25.2278ZM273.572 22.8827C274.176 22.8827 274.734 22.7279 275.244 22.4183C275.771 22.1087 276.189 21.6674 276.498 21.0947C276.823 20.5064 276.986 19.8408 276.986 19.0978C276.986 18.3547 276.823 17.6967 276.498 17.1241C276.189 16.5358 275.771 16.0868 275.244 15.7772C274.734 15.4676 274.176 15.3129 273.572 15.3129C272.969 15.3129 272.404 15.4676 271.877 15.7772C271.367 16.0868 270.949 16.528 270.624 17.1008C270.314 17.6736 270.159 18.3392 270.159 19.0978C270.159 19.8563 270.314 20.5219 270.624 21.0947C270.949 21.6674 271.367 22.1087 271.877 22.4183C272.404 22.7279 272.969 22.8827 273.572 22.8827Z" fill="white"/>
<path d="M260.696 25.228C259.566 25.228 258.545 24.9648 257.631 24.4384C256.733 23.9121 256.029 23.1845 255.518 22.2557C255.007 21.3114 254.752 20.2589 254.752 19.0978C254.752 17.9832 254.992 16.9615 255.472 16.0326C255.967 15.0884 256.656 14.3454 257.538 13.8036C258.421 13.2463 259.427 12.9677 260.557 12.9677C261.718 12.9677 262.724 13.2231 263.576 13.7339C264.442 14.2448 265.1 14.9569 265.549 15.8702C265.998 16.7681 266.223 17.8051 266.223 18.9817C266.223 19.121 266.215 19.2604 266.2 19.3997C266.184 19.5389 266.176 19.6164 266.176 19.6318H257.306C257.383 20.6845 257.763 21.4973 258.444 22.0699C259.125 22.6428 259.899 22.9291 260.766 22.9291C262.097 22.9291 263.119 22.3099 263.831 21.0715L266.014 22.1165C265.503 23.0608 264.791 23.8192 263.877 24.392C262.98 24.9493 261.919 25.228 260.696 25.228ZM263.622 17.6814C263.591 17.3098 263.467 16.9305 263.25 16.5436C263.034 16.1565 262.693 15.8314 262.229 15.5683C261.78 15.2897 261.215 15.1503 260.534 15.1503C259.775 15.1503 259.117 15.3826 258.56 15.8469C258.018 16.3113 257.647 16.9229 257.445 17.6814H263.622Z" fill="white"/>
<path d="M247.663 13.3392H250.078V15.0575H250.217C250.465 14.4692 250.914 13.9816 251.564 13.5946C252.214 13.1921 252.88 12.9909 253.561 12.9909C254.118 12.9909 254.575 13.0683 254.931 13.2231V15.8935C254.405 15.6302 253.816 15.4987 253.166 15.4987C252.33 15.4987 251.626 15.8238 251.053 16.4739C250.496 17.1086 250.217 17.8903 250.217 18.8191V24.8564H247.663V13.3392Z" fill="white"/>
<path d="M244.018 11.3886C243.538 11.3886 243.128 11.2261 242.787 10.901C242.462 10.5605 242.3 10.1502 242.3 9.67035C242.3 9.19046 242.462 8.78797 242.787 8.4629C243.128 8.12234 243.538 7.95206 244.018 7.95206C244.498 7.95206 244.9 8.12234 245.226 8.4629C245.566 8.78797 245.736 9.19046 245.736 9.67035C245.736 10.1502 245.566 10.5605 245.226 10.901C244.9 11.2261 244.498 11.3886 244.018 11.3886ZM242.741 13.3391H245.295V24.8564H242.741V13.3391Z" fill="white"/>
<path d="M231.106 8.23068H241.207V10.7152H233.707V15.4986H240.464V17.9599H233.707V24.8564H231.106V8.23068Z" fill="white"/>
<path d="M206.002 29.8635C207.279 30.3774 208.665 30.6825 210.12 30.7333C212.088 30.802 213.961 30.3949 215.634 29.6217C213.627 28.8332 211.81 27.68 210.258 26.2462C209.253 27.8564 207.765 29.1281 206.002 29.8635Z" fill="#FF9100"/>
<path d="M210.258 26.2466C206.717 22.9714 204.568 18.231 204.75 13.0315C204.756 12.8627 204.765 12.694 204.775 12.5253C204.141 12.3612 203.479 12.2611 202.797 12.2374C201.822 12.2033 200.877 12.3243 199.986 12.5754C199.04 14.2313 198.47 16.1314 198.399 18.1665C198.215 23.4188 201.394 28.008 206.002 29.864C207.765 29.1285 209.252 27.8582 210.258 26.2466Z" fill="#FFC400"/>
<path d="M210.258 26.2465C211.081 24.9289 211.581 23.3841 211.639 21.7199C211.792 17.342 208.848 13.576 204.775 12.5251C204.765 12.6938 204.756 12.8625 204.75 13.0314C204.568 18.2308 206.717 22.9713 210.258 26.2465Z" fill="#FF9100"/>
<path d="M211.183 0.219269C208.863 2.0778 207.031 4.52842 205.923 7.35148C205.288 8.9685 204.89 10.7054 204.773 12.5262C208.847 13.5771 211.79 17.3431 211.637 21.721C211.579 23.3852 211.078 24.9284 210.256 26.2476C211.807 27.6828 213.625 28.8346 215.632 29.6231C219.661 27.7609 222.519 23.7537 222.685 19.0141C222.792 15.9432 221.612 13.2063 219.945 10.8961C218.184 8.45284 211.183 0.219269 211.183 0.219269Z" fill="#DD2C00"/>
</g>
<path d="M47.2032 17.5297V24H45.3941V8.44137H49.6615C51.57 8.44137 52.9783 8.80675 53.8864 9.5375C54.8016 10.2682 55.2592 11.3679 55.2592 12.8365C55.2592 14.894 54.2163 16.2845 52.1305 17.0082L56.3553 24H54.2163L50.449 17.5297H47.2032ZM47.2032 15.9759H49.6828C50.9598 15.9759 51.8963 15.7241 52.4923 15.2203C53.0882 14.7095 53.3862 13.9468 53.3862 12.9323C53.3862 11.9036 53.0811 11.1622 52.471 10.7081C51.8679 10.2541 50.896 10.027 49.5551 10.027H47.2032V15.9759ZM63.5281 24.2128C61.804 24.2128 60.4419 23.6878 59.4415 22.6378C58.4483 21.5878 57.9516 20.1299 57.9516 18.264C57.9516 16.3839 58.4128 14.8904 59.3351 13.7837C60.2645 12.6769 61.5096 12.1235 63.0704 12.1235C64.5319 12.1235 65.6884 12.6059 66.5397 13.5708C67.3911 14.5286 67.8168 15.795 67.8168 17.37V18.4874H59.7821C59.8175 19.8567 60.1616 20.8961 60.8143 21.6055C61.4741 22.315 62.4 22.6697 63.5919 22.6697C64.8477 22.6697 66.0892 22.4072 67.3166 21.8822V23.4573C66.6923 23.7269 66.0999 23.9184 65.5394 24.0319C64.986 24.1525 64.3156 24.2128 63.5281 24.2128ZM63.0492 13.6027C62.1127 13.6027 61.3642 13.9078 60.8037 14.518C60.2503 15.1281 59.924 15.9724 59.8246 17.0508H65.9225C65.9225 15.9369 65.6742 15.0855 65.1776 14.4967C64.6809 13.9007 63.9715 13.6027 63.0492 13.6027ZM78.0118 24L77.6607 22.3398H77.5755C76.9938 23.0706 76.412 23.5672 75.8302 23.8297C75.2556 24.0851 74.5354 24.2128 73.6699 24.2128C72.5135 24.2128 71.6053 23.9149 70.9455 23.3189C70.2928 22.723 69.9665 21.8751 69.9665 20.7755C69.9665 18.42 71.8501 17.1856 75.6174 17.072L77.5968 17.0082V16.2845C77.5968 15.3693 77.3982 14.6953 77.0008 14.2626C76.6106 13.8227 75.9828 13.6027 75.1172 13.6027C74.1452 13.6027 73.0456 13.9007 71.8182 14.4967L71.2754 13.1451C71.8501 12.833 72.478 12.5882 73.1591 12.4108C73.8473 12.2335 74.5354 12.1448 75.2236 12.1448C76.6142 12.1448 77.6429 12.4534 78.3098 13.0706C78.9838 13.6879 79.3208 14.6776 79.3208 16.0398V24H78.0118ZM74.0211 22.7549C75.1208 22.7549 75.9828 22.4534 76.6071 21.8503C77.2385 21.2473 77.5542 20.403 77.5542 19.3175V18.264L75.7877 18.3384C74.3829 18.3881 73.3684 18.608 72.744 18.9983C72.1268 19.3814 71.8182 19.9809 71.8182 20.7968C71.8182 21.4353 72.0097 21.9213 72.3929 22.2547C72.7831 22.5882 73.3258 22.7549 74.0211 22.7549ZM87.6322 24.2128C85.9437 24.2128 84.6347 23.6949 83.7053 22.6591C82.783 21.6162 82.3219 20.144 82.3219 18.2427C82.3219 16.2916 82.7901 14.784 83.7266 13.7198C84.6702 12.6556 86.0111 12.1235 87.7493 12.1235C88.3098 12.1235 88.8702 12.1838 89.4307 12.3044C89.9912 12.425 90.4311 12.5669 90.7503 12.7301L90.2076 14.2306C89.8174 14.0745 89.3917 13.9468 88.9306 13.8475C88.4694 13.7411 88.0615 13.6879 87.7067 13.6879C85.3371 13.6879 84.1523 15.1991 84.1523 18.2214C84.1523 19.6545 84.4396 20.7542 85.0143 21.5204C85.5961 22.2866 86.4545 22.6697 87.5897 22.6697C88.5616 22.6697 89.5584 22.4605 90.5801 22.0419V23.6062C89.7996 24.0106 88.817 24.2128 87.6322 24.2128ZM97.1249 22.7549C97.4371 22.7549 97.7386 22.7336 98.0295 22.691C98.3204 22.6414 98.5509 22.5917 98.7212 22.542V23.8936C98.5297 23.9858 98.2459 24.0603 97.8698 24.1171C97.5009 24.1809 97.1675 24.2128 96.8695 24.2128C94.6134 24.2128 93.4853 23.0245 93.4853 20.6478V13.7092H91.8145V12.8578L93.4853 12.1235L94.2303 9.63328H95.2519V12.3363H98.6361V13.7092H95.2519V20.5733C95.2519 21.2756 95.4186 21.8148 95.7521 22.1909C96.0855 22.5669 96.5431 22.7549 97.1249 22.7549ZM114.706 24V16.4548C114.706 15.5041 114.489 14.7947 114.056 14.3264C113.624 13.8582 112.946 13.624 112.024 13.624C110.803 13.624 109.91 13.9539 109.342 14.6137C108.774 15.2735 108.491 16.3626 108.491 17.8808V24H106.724V12.3363H108.161L108.448 13.9327H108.533C108.895 13.358 109.402 12.9146 110.055 12.6024C110.708 12.2831 111.435 12.1235 112.237 12.1235C113.641 12.1235 114.698 12.4641 115.408 13.1451C116.117 13.8191 116.472 14.9011 116.472 16.391V24H114.706ZM127.284 24L126.933 22.3398H126.848C126.266 23.0706 125.685 23.5672 125.103 23.8297C124.528 24.0851 123.808 24.2128 122.942 24.2128C121.786 24.2128 120.878 23.9149 120.218 23.3189C119.565 22.723 119.239 21.8751 119.239 20.7755C119.239 18.42 121.123 17.1856 124.89 17.072L126.869 17.0082V16.2845C126.869 15.3693 126.671 14.6953 126.273 14.2626C125.883 13.8227 125.255 13.6027 124.39 13.6027C123.418 13.6027 122.318 13.9007 121.091 14.4967L120.548 13.1451C121.123 12.833 121.751 12.5882 122.432 12.4108C123.12 12.2335 123.808 12.1448 124.496 12.1448C125.887 12.1448 126.915 12.4534 127.582 13.0706C128.256 13.6879 128.593 14.6776 128.593 16.0398V24H127.284ZM123.294 22.7549C124.393 22.7549 125.255 22.4534 125.88 21.8503C126.511 21.2473 126.827 20.403 126.827 19.3175V18.264L125.06 18.3384C123.655 18.3881 122.641 18.608 122.017 18.9983C121.399 19.3814 121.091 19.9809 121.091 20.7968C121.091 21.4353 121.282 21.9213 121.665 22.2547C122.056 22.5882 122.598 22.7549 123.294 22.7549ZM136.011 22.7549C136.323 22.7549 136.625 22.7336 136.915 22.691C137.206 22.6414 137.437 22.5917 137.607 22.542V23.8936C137.416 23.9858 137.132 24.0603 136.756 24.1171C136.387 24.1809 136.053 24.2128 135.755 24.2128C133.499 24.2128 132.371 23.0245 132.371 20.6478V13.7092H130.7V12.8578L132.371 12.1235L133.116 9.63328H134.138V12.3363H137.522V13.7092H134.138V20.5733C134.138 21.2756 134.305 21.8148 134.638 22.1909C134.971 22.5669 135.429 22.7549 136.011 22.7549ZM141.715 24H139.948V12.3363H141.715V24ZM139.799 9.17567C139.799 8.77127 139.899 8.47684 140.097 8.29238C140.296 8.10082 140.544 8.00505 140.842 8.00505C141.126 8.00505 141.371 8.10082 141.577 8.29238C141.782 8.48394 141.885 8.77837 141.885 9.17567C141.885 9.57297 141.782 9.87095 141.577 10.0696C141.371 10.2612 141.126 10.3569 140.842 10.3569C140.544 10.3569 140.296 10.2612 140.097 10.0696C139.899 9.87095 139.799 9.57297 139.799 9.17567ZM148.015 24L143.588 12.3363H145.482L147.994 19.2537C148.561 20.8712 148.895 21.9213 148.994 22.4037H149.079C149.157 22.0277 149.402 21.2508 149.814 20.0731C150.232 18.8883 151.165 16.3094 152.612 12.3363H154.507L150.08 24H148.015ZM161.307 24.2128C159.583 24.2128 158.221 23.6878 157.22 22.6378C156.227 21.5878 155.731 20.1299 155.731 18.264C155.731 16.3839 156.192 14.8904 157.114 13.7837C158.043 12.6769 159.288 12.1235 160.849 12.1235C162.311 12.1235 163.467 12.6059 164.319 13.5708C165.17 14.5286 165.596 15.795 165.596 17.37V18.4874H157.561C157.596 19.8567 157.94 20.8961 158.593 21.6055C159.253 22.315 160.179 22.6697 161.371 22.6697C162.627 22.6697 163.868 22.4072 165.095 21.8822V23.4573C164.471 23.7269 163.879 23.9184 163.318 24.0319C162.765 24.1525 162.094 24.2128 161.307 24.2128ZM160.828 13.6027C159.892 13.6027 159.143 13.9078 158.583 14.518C158.029 15.1281 157.703 15.9724 157.603 17.0508H163.701C163.701 15.9369 163.453 15.0855 162.956 14.4967C162.46 13.9007 161.75 13.6027 160.828 13.6027Z" fill="white"/>
<g clip-path="url(#clip1_4001_387)">
<path d="M17.4999 18.6896C19.2228 18.6896 20.6195 17.2929 20.6195 15.57C20.6195 13.8471 19.2228 12.4505 17.4999 12.4505C15.777 12.4505 14.3804 13.8471 14.3804 15.57C14.3804 17.2929 15.777 18.6896 17.4999 18.6896Z" fill="#61DAFB"/>
<path d="M17.5001 21.9613C26.7449 21.9613 34.2392 19.0999 34.2392 15.57C34.2392 12.0402 26.7449 9.17873 17.5001 9.17873C8.25535 9.17873 0.760986 12.0402 0.760986 15.57C0.760986 19.0999 8.25535 21.9613 17.5001 21.9613Z" stroke="#61DAFB" stroke-width="1.52174"/>
<path d="M11.965 18.7657C16.5874 26.7719 22.8127 31.8315 25.8696 30.0665C28.9265 28.3016 27.6575 20.3806 23.0351 12.3744C18.4127 4.36818 12.1874 -0.691389 9.1305 1.07352C6.07358 2.83843 7.34265 10.7595 11.965 18.7657Z" stroke="#61DAFB" stroke-width="1.52174"/>
<path d="M11.9652 12.3744C7.34277 20.3806 6.07371 28.3016 9.13062 30.0665C12.1875 31.8314 18.4128 26.7719 23.0352 18.7657C27.6576 10.7595 28.9267 2.83842 25.8698 1.07351C22.8128 -0.691397 16.5875 4.36817 11.9652 12.3744Z" stroke="#61DAFB" stroke-width="1.52174"/>
</g>
<defs>
<clipPath id="clip0_4001_387">
<rect width="117" height="32.0227" fill="white" transform="translate(198 0.0106812)"/>
</clipPath>
<clipPath id="clip1_4001_387">
<rect width="35" height="31.1401" fill="white"/>
</clipPath>
</defs>
</svg>
