<svg width="531" height="728" viewBox="0 0 531 728" fill="none" xmlns="http://www.w3.org/2000/svg">
<path d="M151.272 122.352C151.456 122.273 151.575 122.092 151.575 121.892V76.0376C151.575 34.3194 117.756 0.5 76.0376 0.5C34.3193 0.5 0.5 34.3194 0.5 76.0376V225.065C0.5 225.263 0.616205 225.442 0.796581 225.522C0.976956 225.602 1.18771 225.569 1.33448 225.437C54.2573 177.806 77.8246 164.415 112.74 144.575C115.615 142.942 118.566 141.265 121.617 139.522C125.24 137.451 128.992 135.127 132.69 132.835C134.189 131.906 135.679 130.983 137.149 130.084C142.257 126.96 147.113 124.131 151.272 122.352ZM530.123 76.5609C530.123 34.8426 496.304 1.0233 454.585 1.0233C412.867 1.0233 379.048 34.8426 379.048 76.5609V252.111C319.468 249.043 252.056 257.903 190.633 291.048C83.8741 348.656 17.4603 466.775 23.8505 653.795C25.2752 695.489 60.2296 728.134 101.924 726.709C143.617 725.285 176.262 690.33 174.838 648.636C172.333 575.344 183.494 524.977 200.632 490.044C217.767 455.121 240.891 435.594 262.376 424.001C296.746 405.455 339.354 400.35 379.048 403.447V651.216C379.048 692.934 412.867 726.753 454.585 726.753C496.304 726.753 530.123 692.934 530.123 651.216V76.5609Z" stroke="white" stroke-width="1.5" stroke-linecap="round" stroke-linejoin="round"/>
</svg>
