<svg width="212" height="51" viewBox="0 0 212 51" fill="none" xmlns="http://www.w3.org/2000/svg">
<path d="M11.9403 10.6098C12.3083 10.4523 12.5469 10.0907 12.5469 9.69044V6.77345C12.5469 3.58486 9.96203 1 6.77344 1C3.58486 1 1 3.58486 1 6.77345V16.2537C1 16.6486 1.23241 17.0065 1.59316 17.1672C1.95391 17.3279 2.37543 17.2612 2.66896 16.997C5.95918 14.0358 7.39518 13.22 9.58114 11.9782C9.76597 11.8732 9.95616 11.7652 10.1533 11.6526C10.3998 11.5117 10.6624 11.349 10.903 11.1999C10.9946 11.1431 11.0831 11.0883 11.1662 11.0375C11.493 10.8376 11.7478 10.6922 11.9403 10.6098ZM36.6278 6.80673C36.6278 3.61815 34.043 1.03329 30.8544 1.03329C27.6658 1.03329 25.081 3.61815 25.081 6.80673V16.9732C21.42 16.9169 17.3561 17.5741 13.6035 19.599C6.40107 23.4856 2.07072 31.4064 2.48599 43.56C2.59487 46.7467 5.26649 49.2418 8.45322 49.1329C11.6399 49.024 14.135 46.3524 14.0261 43.1657C13.8705 38.611 14.568 35.5761 15.5686 33.5366C16.5609 31.5141 17.8791 30.4126 19.0869 29.7609C20.8144 28.8287 22.955 28.4683 25.081 28.5206V43.3629C25.081 46.5514 27.6658 49.1363 30.8544 49.1363C34.043 49.1363 36.6278 46.5514 36.6278 43.3629V6.80673Z" stroke="#4A3AFF" stroke-width="2" stroke-linecap="round" stroke-linejoin="round"/>
<path d="M11.9403 10.6098C12.3083 10.4523 12.5469 10.0907 12.5469 9.69044V6.77345C12.5469 3.58486 9.96203 1 6.77344 1C3.58486 1 1 3.58486 1 6.77345V16.2537C1 16.6486 1.23241 17.0065 1.59316 17.1672C1.95391 17.3279 2.37543 17.2612 2.66896 16.997C5.95918 14.0358 7.39518 13.22 9.58114 11.9782C9.76597 11.8732 9.95616 11.7652 10.1533 11.6526C10.3998 11.5117 10.6624 11.349 10.903 11.1999C10.9946 11.1431 11.0831 11.0883 11.1662 11.0375C11.493 10.8376 11.7478 10.6922 11.9403 10.6098ZM36.6278 6.80673C36.6278 3.61815 34.043 1.03329 30.8544 1.03329C27.6658 1.03329 25.081 3.61815 25.081 6.80673V16.9732C21.42 16.9169 17.3561 17.5741 13.6035 19.599C6.40107 23.4856 2.07072 31.4064 2.48599 43.56C2.59487 46.7467 5.26649 49.2418 8.45322 49.1329C11.6399 49.024 14.135 46.3524 14.0261 43.1657C13.8705 38.611 14.568 35.5761 15.5686 33.5366C16.5609 31.5141 17.8791 30.4126 19.0869 29.7609C20.8144 28.8287 22.955 28.4683 25.081 28.5206V43.3629C25.081 46.5514 27.6658 49.1363 30.8544 49.1363C34.043 49.1363 36.6278 46.5514 36.6278 43.3629V6.80673Z" stroke="url(#paint0_linear_4017_352)" stroke-width="2" stroke-linecap="round" stroke-linejoin="round"/>
<path d="M64.9787 36.0979V14.4665H69.1504V36.0979H64.9787ZM51.32 36.0979V14.4665H55.4918V36.0979H51.32ZM54.9355 26.7346V23.3663H65.6585V26.7346H54.9355ZM74.8181 42.6182L78.4954 34.3674H77.5993L71.3261 20.7705H75.8687L80.3186 30.6591H80.3804L84.3668 20.7705H88.8167L79.2371 42.6182H74.8181ZM90.9426 42.6182V20.7705H94.5582L94.929 23.15H94.9908C95.341 22.6143 95.7634 22.1405 96.2578 21.7285C96.7522 21.3164 97.3291 20.9971 97.9883 20.7705C98.6682 20.5233 99.4407 20.3997 100.306 20.3997C101.748 20.3997 103.015 20.7499 104.107 21.4503C105.219 22.1508 106.085 23.1087 106.703 24.3242C107.341 25.5191 107.661 26.8994 107.661 28.4651C107.661 29.9896 107.341 31.3596 106.703 32.5751C106.085 33.7905 105.219 34.7485 104.107 35.449C102.994 36.1288 101.697 36.4687 100.213 36.4687C99.0596 36.4687 98.0501 36.2524 97.1849 35.8198C96.3402 35.3872 95.6501 34.8103 95.1144 34.0893V42.6182H90.9426ZM99.2244 32.9459C100.048 32.9459 100.78 32.7605 101.418 32.3897C102.057 31.9982 102.552 31.4626 102.902 30.7828C103.252 30.1029 103.427 29.3304 103.427 28.4651C103.427 27.5792 103.252 26.7964 102.902 26.1165C102.552 25.4367 102.057 24.9114 101.418 24.5405C100.78 24.1491 100.048 23.9534 99.2244 23.9534C98.4003 23.9534 97.669 24.1491 97.0303 24.5405C96.3917 24.9114 95.8973 25.4367 95.5471 26.1165C95.1968 26.7964 95.0217 27.5689 95.0217 28.4342C95.0217 29.3201 95.1968 30.1029 95.5471 30.7828C95.8973 31.4626 96.3917 31.9982 97.0303 32.3897C97.669 32.7605 98.4003 32.9459 99.2244 32.9459ZM118.067 36.4687C116.501 36.4687 115.11 36.1391 113.895 35.4799C112.7 34.8206 111.763 33.8936 111.083 32.6987C110.403 31.5038 110.063 30.1338 110.063 28.5887C110.063 26.9818 110.393 25.5706 111.052 24.3551C111.732 23.119 112.669 22.1508 113.864 21.4503C115.079 20.7499 116.48 20.3997 118.067 20.3997C119.591 20.3997 120.93 20.7293 122.084 21.3885C123.258 22.0478 124.175 22.9542 124.834 24.1079C125.493 25.241 125.823 26.5286 125.823 27.9707C125.823 28.1767 125.813 28.4136 125.792 28.6814C125.792 28.9286 125.782 29.1861 125.761 29.454H113.03V26.8891H121.589C121.528 25.9414 121.167 25.1792 120.508 24.6023C119.869 24.0255 119.066 23.7371 118.098 23.7371C117.377 23.7371 116.717 23.9019 116.12 24.2315C115.522 24.5405 115.049 25.0144 114.698 25.653C114.348 26.2917 114.173 27.1054 114.173 28.0943V28.9904C114.173 29.8351 114.338 30.5664 114.667 31.1845C114.997 31.7819 115.45 32.2454 116.027 32.5751C116.625 32.9047 117.294 33.0695 118.036 33.0695C118.798 33.0695 119.437 32.9047 119.952 32.5751C120.467 32.2248 120.858 31.7819 121.126 31.2463H125.36C125.071 32.2145 124.587 33.1004 123.907 33.9039C123.227 34.6867 122.393 35.315 121.404 35.7889C120.415 36.2421 119.303 36.4687 118.067 36.4687ZM128.513 36.0979V20.7705H132.159L132.53 23.8607H132.592C133.004 23.016 133.477 22.3465 134.013 21.8521C134.549 21.337 135.167 20.9662 135.867 20.7396C136.588 20.513 137.371 20.3997 138.216 20.3997V24.8187H137.072C136.413 24.8187 135.805 24.8908 135.249 25.035C134.714 25.1792 134.25 25.4264 133.859 25.7766C133.488 26.1062 133.199 26.5492 132.993 27.1054C132.787 27.6616 132.684 28.3518 132.684 29.1758V36.0979H128.513ZM140.435 36.0979V14.4665H149.335C150.818 14.4665 152.075 14.7034 153.105 15.1772C154.135 15.6511 154.918 16.3103 155.453 17.155C155.989 17.979 156.257 18.937 156.257 20.0288C156.257 21.1207 156.02 22.0375 155.546 22.7791C155.072 23.5208 154.444 24.0976 153.661 24.5096C152.878 24.9011 152.033 25.1277 151.127 25.1895L151.621 24.8496C152.61 24.8908 153.486 25.1586 154.248 25.653C155.031 26.1268 155.639 26.7655 156.071 27.5689C156.525 28.3724 156.751 29.248 156.751 30.1956C156.751 31.3493 156.473 32.3691 155.917 33.2549C155.361 34.1408 154.547 34.8412 153.476 35.3563C152.425 35.8507 151.137 36.0979 149.613 36.0979H140.435ZM144.607 32.6987H148.964C150.097 32.6987 150.972 32.4412 151.591 31.9261C152.209 31.4111 152.518 30.6694 152.518 29.7012C152.518 28.7329 152.198 27.981 151.56 27.4453C150.921 26.8891 150.035 26.611 148.902 26.611H144.607V32.6987ZM144.607 23.4899H148.655C149.726 23.4899 150.55 23.2427 151.127 22.7482C151.704 22.2538 151.992 21.5533 151.992 20.6469C151.992 19.761 151.704 19.0709 151.127 18.5765C150.55 18.0614 149.706 17.8039 148.593 17.8039H144.607V23.4899ZM165.314 36.4687C164.037 36.4687 162.955 36.2009 162.069 35.6653C161.183 35.1296 160.504 34.3365 160.03 33.2858C159.556 32.2145 159.319 30.9064 159.319 29.3613V20.7705H163.491V28.9904C163.491 30.2677 163.748 31.2463 164.263 31.9261C164.778 32.606 165.592 32.9459 166.705 32.9459C167.426 32.9459 168.054 32.7811 168.59 32.4515C169.146 32.1012 169.578 31.6171 169.887 30.9991C170.196 30.3604 170.351 29.5879 170.351 28.6814V20.7705H174.523V36.0979H170.907L170.567 33.5948H170.536C170.042 34.4601 169.362 35.1605 168.497 35.6962C167.632 36.2112 166.571 36.4687 165.314 36.4687ZM178.131 36.0979V20.7705H182.303V36.0979H178.131ZM180.233 18.6692C179.47 18.6692 178.852 18.4425 178.378 17.9893C177.905 17.5361 177.668 16.9798 177.668 16.3206C177.668 15.6408 177.905 15.0742 178.378 14.621C178.852 14.1678 179.47 13.9411 180.233 13.9411C180.995 13.9411 181.613 14.1678 182.087 14.621C182.581 15.0742 182.828 15.6408 182.828 16.3206C182.828 16.9798 182.581 17.5361 182.087 17.9893C181.613 18.4425 180.995 18.6692 180.233 18.6692ZM185.972 36.0979V14.1266H190.144V36.0979H185.972ZM200.467 36.4687C199.045 36.4687 197.778 36.1185 196.666 35.4181C195.553 34.7176 194.678 33.7596 194.039 32.5442C193.421 31.3287 193.112 29.9484 193.112 28.4033C193.112 26.8788 193.421 25.5088 194.039 24.2933C194.678 23.0778 195.553 22.1302 196.666 21.4503C197.799 20.7499 199.097 20.3997 200.56 20.3997C201.713 20.3997 202.723 20.616 203.588 21.0486C204.453 21.4812 205.143 22.0581 205.658 22.7791V14.1266H209.83V36.0979H206.215L205.844 33.7184H205.782C205.432 34.2541 205.01 34.7279 204.515 35.1399C204.021 35.552 203.433 35.8713 202.754 36.0979C202.094 36.3451 201.332 36.4687 200.467 36.4687ZM201.548 32.915C202.373 32.915 203.094 32.7296 203.712 32.3588C204.35 31.9673 204.845 31.4317 205.195 30.7519C205.566 30.072 205.751 29.2995 205.751 28.4342C205.751 27.5483 205.566 26.7655 205.195 26.0856C204.845 25.4058 204.35 24.8805 203.712 24.5096C203.094 24.1182 202.362 23.9225 201.518 23.9225C200.714 23.9225 199.993 24.1182 199.354 24.5096C198.716 24.9011 198.221 25.4367 197.871 26.1165C197.521 26.7758 197.346 27.538 197.346 28.4033C197.346 29.2892 197.521 30.072 197.871 30.7519C198.221 31.4317 198.716 31.9673 199.354 32.3588C199.993 32.7296 200.724 32.915 201.548 32.915Z" fill="white"/>
<defs>
<linearGradient id="paint0_linear_4017_352" x1="34" y1="50.5" x2="-3.56572" y2="29.761" gradientUnits="userSpaceOnUse">
<stop stop-color="#6100FF"/>
<stop offset="1" stop-color="#00FFFF"/>
</linearGradient>
</defs>
</svg>
